{
  "accessors": [
    {
      "bufferView": 2,
      "componentType": 5126,
      "count": 898,
      "max": [
        38.169929504394531,
        41.545806884765625,
        43.927749633789062
      ],
      "min": [
        -38.169925689697266,
        -40.590057373046875,
        -35.576023101806641
      ],
      "type": "VEC3"
    },
    {
      "bufferView": 2,
      "byteOffset": 10776,
      "componentType": 5126,
      "count": 898,
      "max": [
        0.99991583824157715,
        0.99898731708526611,
        0.99978655576705933
      ],
      "min": [
        -0.9989510178565979,
        -0.99908733367919922,
        -0.99993807077407837
      ],
      "type": "VEC3"
    },
    {
      "bufferView": 3,
      "componentType": 5126,
      "count": 898,
      "max": [
        0.99719250202178955,
        0.94755810499191284,
        0.99318236112594604,
        1
      ],
      "min": [
        -0.99981731176376343,
        -0.99948078393936157,
        -0.99977737665176392,
        1
      ],
      "type": "VEC4"
    },
    {
      "bufferView": 1,
      "componentType": 5126,
      "count": 898,
      "max": [
        0.98610657453536987,
        0.99153435230255127
      ],
      "min": [
        0.0081479260697960854,
        0.015252174809575081
      ],
      "type": "VEC2"
    },
    {
      "bufferView": 0,
      "componentType": 5125,
      "count": 4674,
      "max": [
        897
      ],
      "min": [
        0
      ],
      "type": "SCALAR"
    }
  ],
  "asset": {
    "extras": {
      "author": "moonlight4art (https://sketchfab.com/moonlight4art)",
      "license": "CC-BY-4.0 (http://creativecommons.org/licenses/by/4.0/)",
      "source": "https://sketchfab.com/3d-models/apple-cc07c3aace8648aab071ef9c44276bfe",
      "title": "APPLE"
    },
    "generator": "Sketchfab-10.23.0",
    "version": "2.0"
  },
  "bufferViews": [
    {
      "buffer": 0,
      "byteLength": 18696,
      "byteOffset": 0,
      "name": "floatBufferViews",
      "target": 34963
    },
    {
      "buffer": 0,
      "byteLength": 7184,
      "byteOffset": 18696,
      "byteStride": 8,
      "name": "floatBufferViews",
      "target": 34962
    },
    {
      "buffer": 0,
      "byteLength": 21552,
      "byteOffset": 25880,
      "byteStride": 12,
      "name": "floatBufferViews",
      "target": 34962
    },
    {
      "buffer": 0,
      "byteLength": 14368,
      "byteOffset": 47432,
      "byteStride": 16,
      "name": "floatBufferViews",
      "target": 34962
    }
  ],
  "buffers": [
    {
      "byteLength": 61800,
      "uri": "scene.bin"
    }
  ],
  "images": [
    {
      "uri": "textures/Material_35_baseColor.png"
    },
    {
      "uri": "textures/Material_35_normal.jpeg"
    }
  ],
  "materials": [
    {
      "doubleSided": true,
      "name": "Material_35",
      "normalTexture": {
        "index": 1,
        "scale": 0.43948251646206887,
        "texCoord": 0
      },
      "pbrMetallicRoughness": {
        "baseColorFactor": [
          1,
          1,
          1,
          1
        ],
        "baseColorTexture": {
          "index": 0,
          "texCoord": 0
        },
        "metallicFactor": 0,
        "roughnessFactor": 0.29355836054210827
      }
    }
  ],
  "meshes": [
    {
      "name": "apple_low_obj_Material #35_0",
      "primitives": [
        {
          "attributes": {
            "NORMAL": 1,
            "POSITION": 0,
            "TANGENT": 2,
            "TEXCOORD_0": 3
          },
          "indices": 4,
          "material": 0,
          "mode": 4
        }
      ]
    }
  ],
  "nodes": [
    {
      "children": [
        1
      ],
      "name": "RootNode (gltf orientation matrix)",
      "rotation": [
        -0.70710678118654746,
        -0,
        -0,
        0.70710678118654757
      ]
    },
    {
      "children": [
        2
      ],
      "name": "RootNode (model correction matrix)"
    },
    {
      "children": [
        3
      ],
      "matrix": [
        1,
        0,
        0,
        0,
        0,
        0,
        1,
        0,
        0,
        -1,
        0,
        0,
        0,
        0,
        0,
        1
      ],
      "name": "db29f8f9f37a423f946293c5d9352fe0.fbx"
    },
    {
      "children": [
        4
      ],
      "name": "RootNode"
    },
    {
      "children": [
        5
      ],
      "matrix": [
        1,
        0,
        0,
        0,
        0,
        2.2204460492503131e-16,
        -1,
        0,
        0,
        1,
        2.2204460492503131e-16,
        0,
        13.749883651733398,
        39.752479553222656,
        6.189178466796875,
        1
      ],
      "name": "HeroObjectGroup"
    },
    {
      "children": [
        6
      ],
      "matrix": [
        1,
        0,
        0,
        0,
        0,
        1,
        0,
        0,
        0,
        0,
        1,
        0,
        -13.564002990722656,
        3.7106456756591797,
        -4.1752738952636719,
        1
      ],
      "name": "apple_low_obj"
    },
    {
      "mesh": 0,
      "name": "apple_low_obj_Material #35_0"
    }
  ],
  "samplers": [
    {
      "magFilter": 9729,
      "minFilter": 9987,
      "wrapS": 10497,
      "wrapT": 10497
    }
  ],
  "scene": 0,
  "scenes": [
    {
      "name": "OSG_Scene",
      "nodes": [
        0
      ]
    }
  ],
  "textures": [
    {
      "sampler": 0,
      "source": 0
    },
    {
      "sampler": 0,
      "source": 1
    }
  ]
}

